# xmcd
#
# Track frame offsets: 
#        150
#        27338
#        50308
#        66072
#        79888
#
# Disc length: 1239 seconds
#
# Revision: 1
# Processed by: cddbd v1.5.2PL0 Copyright (c) Steve Scherf et al.
# Submitted via: ExactAudioCopyFreeDBPlugin 1.0
#
DISCID=3804d505
DTITLE=Eraserheads - Bananatype
DYEAR=1997
DGENRE=Rock
TTITLE0=Harana
TTITLE1=Policewoman
TTITLE2=Bananatype
TTITLE3=I Can't Remember You
TTITLE4=Tikman
EXTD=
EXTT0=
EXTT1=
EXTT2=
EXTT3=
EXTT4=
PLAYORDER=
